# xmcd
#
# Track frame offsets: 
#        150
#        13805
#        29397
#        47576
#        64195
#        81627
#        100457
#        109672
#        126438
#        148652
#        164735
#        175167
#
# Disc length: 2537 seconds
#
# Revision: 2
# Processed by: cddbd v1.5.2PL0 Copyright (c) Steve Scherf et al.
# Submitted via: ExactAudioCopy v0.95b3
#
DISCID=b009e70c
DTITLE=Lonesome Coyotes - Just Like New
DYEAR=2005
DGENRE=
TTITLE0=Shine Shave Shower
TTITLE1=Texas Blues
TTITLE2=Just Like New
TTITLE3=Sad Situation
TTITLE4=L&N Lullabye
TTITLE5=Couldn't Do Nothin' Right
TTITLE6=Dippin' Into the Well
TTITLE7=Ain't Got Noghin' But the Blues
TTITLE8=She Don't Love Me
TTITLE9=Losing You
TTITLE10=Moanin' The Blues
TTITLE11=Tonight I'll Be Staying Here With You
EXTD=
EXTT0=
EXTT1=
EXTT2=
EXTT3=
EXTT4=
EXTT5=
EXTT6=
EXTT7=
EXTT8=
EXTT9=
EXTT10=
EXTT11=
PLAYORDER=
